<mxfile host="65bd71144e">
    <diagram id="OE9yj7XUb7hQOgtaH2el" name="Page-1">
        <mxGraphModel dx="979" dy="948" grid="1" gridSize="10" guides="1" tooltips="1" connect="1" arrows="1" fold="1" page="1" pageScale="1" pageWidth="827" pageHeight="1169" math="0" shadow="0">
            <root>
                <mxCell id="0"/>
                <mxCell id="1" parent="0"/>
                <mxCell id="2" value="/home /album" style="rounded=0;whiteSpace=wrap;html=1;" parent="1" vertex="1">
                    <mxGeometry x="100" y="30" width="640" height="50" as="geometry"/>
                </mxCell>
                <mxCell id="4" value="/album" style="rounded=0;whiteSpace=wrap;html=1;" parent="1" vertex="1">
                    <mxGeometry x="360" y="170" width="120" height="60" as="geometry"/>
                </mxCell>
                <mxCell id="5" value="" style="endArrow=classic;html=1;exitX=0.5;exitY=1;exitDx=0;exitDy=0;entryX=0.5;entryY=0;entryDx=0;entryDy=0;" parent="1" source="2" target="4" edge="1">
                    <mxGeometry width="50" height="50" relative="1" as="geometry">
                        <mxPoint x="390" y="380" as="sourcePoint"/>
                        <mxPoint x="440" y="330" as="targetPoint"/>
                    </mxGeometry>
                </mxCell>
                <mxCell id="6" value="Album" style="rhombus;whiteSpace=wrap;html=1;" parent="1" vertex="1">
                    <mxGeometry x="380" y="300" width="80" height="80" as="geometry"/>
                </mxCell>
                <mxCell id="7" value="" style="endArrow=classic;html=1;exitX=0.5;exitY=1;exitDx=0;exitDy=0;entryX=0.5;entryY=0;entryDx=0;entryDy=0;" parent="1" source="4" target="6" edge="1">
                    <mxGeometry width="50" height="50" relative="1" as="geometry">
                        <mxPoint x="390" y="610" as="sourcePoint"/>
                        <mxPoint x="440" y="560" as="targetPoint"/>
                    </mxGeometry>
                </mxCell>
                <mxCell id="8" value="&lt;h1&gt;Album Side&lt;/h1&gt;&lt;p&gt;Opret Et Album komponent og indsæt det på Album Siden&lt;/p&gt;" style="text;html=1;strokeColor=none;fillColor=none;spacing=5;spacingTop=-20;whiteSpace=wrap;overflow=hidden;rounded=0;" parent="1" vertex="1">
                    <mxGeometry x="530" y="230" width="190" height="90" as="geometry"/>
                </mxCell>
                <mxCell id="10" value="&lt;h1&gt;Album Komponent&lt;/h1&gt;&lt;p&gt;Et Album Komponent henter sin data fra et endpoint&lt;/p&gt;" style="text;html=1;strokeColor=none;fillColor=none;spacing=5;spacingTop=-20;whiteSpace=wrap;overflow=hidden;rounded=0;align=center;" parent="1" vertex="1">
                    <mxGeometry x="234" y="410" width="360" height="80" as="geometry"/>
                </mxCell>
                <mxCell id="11" value="Album" style="rounded=0;html=1;strokeColor=#9933FF;strokeWidth=4;labelPosition=left;verticalLabelPosition=top;align=right;verticalAlign=bottom;spacingLeft=0;spacingTop=0;spacingBottom=-23;spacingRight=-57;" parent="1" vertex="1">
                    <mxGeometry x="100" y="510" width="640" height="420" as="geometry"/>
                </mxCell>
                <mxCell id="12" value="Header" style="rounded=0;html=1;strokeColor=#FF99FF;strokeWidth=4;labelPosition=left;verticalLabelPosition=top;align=right;verticalAlign=bottom;spacingLeft=0;spacingTop=0;spacingBottom=-23;spacingRight=-48;" parent="1" vertex="1">
                    <mxGeometry x="125" y="600" width="590" height="40" as="geometry"/>
                </mxCell>
                <mxCell id="13" value="Image" style="rounded=0;html=1;strokeColor=#CC0000;strokeWidth=4;labelPosition=left;verticalLabelPosition=top;align=right;verticalAlign=bottom;spacingLeft=0;spacingTop=0;spacingBottom=-23;spacingRight=-43;" parent="1" vertex="1">
                    <mxGeometry x="125" y="650" width="590" height="190" as="geometry"/>
                </mxCell>
                <mxCell id="14" value="Navigation" style="rounded=0;html=1;strokeColor=#FFFF00;strokeWidth=4;labelPosition=left;verticalLabelPosition=top;align=right;verticalAlign=bottom;spacingLeft=0;spacingTop=0;spacingBottom=-23;spacingRight=-68;" parent="1" vertex="1">
                    <mxGeometry x="125" y="850" width="590" height="70" as="geometry"/>
                </mxCell>
                <mxCell id="15" value="NavButton" style="rounded=0;html=1;strokeColor=#FF66B3;strokeWidth=4;labelPosition=left;verticalLabelPosition=top;align=right;verticalAlign=bottom;spacingLeft=0;spacingTop=0;spacingBottom=-23;spacingRight=-68;" parent="1" vertex="1">
                    <mxGeometry x="136" y="878" width="80" height="30" as="geometry"/>
                </mxCell>
                <mxCell id="17" value="NavDots" style="rounded=0;html=1;strokeColor=#006600;strokeWidth=4;labelPosition=left;verticalLabelPosition=top;align=right;verticalAlign=bottom;spacingLeft=0;spacingTop=0;spacingBottom=-23;spacingRight=-57;" parent="1" vertex="1">
                    <mxGeometry x="226" y="877" width="390" height="30" as="geometry"/>
                </mxCell>
                <mxCell id="18" value="NavButton" style="rounded=0;html=1;strokeColor=#FF66B3;strokeWidth=4;labelPosition=left;verticalLabelPosition=top;align=right;verticalAlign=bottom;spacingLeft=0;spacingTop=0;spacingBottom=-23;spacingRight=-68;" parent="1" vertex="1">
                    <mxGeometry x="625" y="878" width="80" height="30" as="geometry"/>
                </mxCell>
                <mxCell id="19" value="ImageDetail" style="rounded=0;html=1;strokeColor=#9933FF;strokeWidth=4;labelPosition=left;verticalLabelPosition=top;align=right;verticalAlign=bottom;spacingLeft=0;spacingTop=0;spacingBottom=-23;spacingRight=-104;" parent="1" vertex="1">
                    <mxGeometry x="490" y="740" width="210" height="80" as="geometry"/>
                </mxCell>
                <mxCell id="21" value="Loader" style="rounded=0;html=1;strokeColor=#33FFFF;strokeWidth=4;labelPosition=left;verticalLabelPosition=top;align=right;verticalAlign=bottom;spacingLeft=0;spacingTop=0;spacingBottom=-23;spacingRight=-48;" parent="1" vertex="1">
                    <mxGeometry x="125" y="550" width="590" height="40" as="geometry"/>
                </mxCell>
            </root>
        </mxGraphModel>
    </diagram>
</mxfile>